HIERARCHY
ROOT pelvis
{
  OFFSET 0 100 0
  CHANNELS 6 Xposition Yposition Zposition Zrotation Xrotation Yrotation
  JOINT pelvis_right_femur
  {
    OFFSET -10.78128 -3.44521 -0.5502486
    CHANNELS 3 Zrotation Xrotation Yrotation
    JOINT right_femur_tibia
    {
      OFFSET -0.8047443 -44.0398 -0.1307829
      CHANNELS 3 Zrotation Xrotation Yrotation
      JOINT right_tibia_foot
      {
        OFFSET 3.006224 -47.83518 -5
        CHANNELS 3 Zrotation Xrotation Yrotation
        End Site
        {
          OFFSET 0 -5 15
        }
      }
    }
  }
  JOINT pelvis_left_femur
  {
    OFFSET 10.78128 -3.44521 -0.5502486
    CHANNELS 3 Zrotation Xrotation Yrotation
    JOINT left_femur_tibia
    {
      OFFSET 0.8047443 -44.0398 -0.1307829
      CHANNELS 3 Zrotation Xrotation Yrotation
      JOINT left_tibia_foot
      {
        OFFSET -4.370144 -48.10324 -4.275266
        CHANNELS 3 Zrotation Xrotation Yrotation
        End Site
        {
          OFFSET 0 -5 15
        }
      }
    }
  }
  JOINT pelvis_spine1
  {
    OFFSET 0 6.468898 -3.129235
    CHANNELS 3 Zrotation Xrotation Yrotation
    JOINT spine1
    {
      OFFSET 0 23.15396 4.99043
      CHANNELS 3 Zrotation Xrotation Yrotation
      JOINT spine2
      {
        OFFSET 0 20.79997 -5.064912
        CHANNELS 3 Zrotation Xrotation Yrotation
        JOINT neck
        {
          OFFSET 0 14.38658 9.616178
          CHANNELS 3 Zrotation Xrotation Yrotation
          End Site
          {
            OFFSET 0 20 0
          }
        }
      }
      JOINT right_manubrium
      {
        OFFSET -5.722621 16.35077 3.967754
        CHANNELS 3 Zrotation Xrotation Yrotation
        JOINT right_clavicle
        {
          OFFSET -13.16364 1.694482 -4.693211
          CHANNELS 3 Zrotation Xrotation Yrotation
          JOINT right_humerus
          {
            OFFSET -28.5034 -0.3100689 -2.792744
            CHANNELS 3 Zrotation Xrotation Yrotation
            JOINT right_radius
            {
              OFFSET -25.15693 0.02248979 -1.271978
              CHANNELS 3 Zrotation Xrotation Yrotation
              End Site
              {
                OFFSET -15 0 0
              }
            }
          }
        }
      }
      JOINT left_manubrium
      {
        OFFSET 5.722621 16.35077 3.967754
        CHANNELS 3 Zrotation Xrotation Yrotation
        JOINT left_clavicle
        {
          OFFSET 13.16364 1.694482 -4.693211
          CHANNELS 3 Zrotation Xrotation Yrotation
          JOINT left_humerus
          {
            OFFSET 29.39168 -1.063119 -2.237045
            CHANNELS 3 Zrotation Xrotation Yrotation
            JOINT left_radius
            {
              OFFSET 24.59957 -0.9528479 0.9047498
              CHANNELS 3 Zrotation Xrotation Yrotation
              End Site
              {
                OFFSET 15 -0 -0
              }
            }
          }
        }
      }
    }
  }
}
MOTION
Frames: 19
Frame Time: 0.0416666666667
0 103.5113 0 1.581493 -2.96999 0.2480636 1.214632 -10.38755 6.733943 -0 40.42039 -0 -6.851464 -16.61724 -3.99042 -6.927467 12.12802 -24.1987 -0 5.528291 -0 -0.4232774 -19.31605 22.98563 -0.4045561 -2.704573 5.243638 -0.9936196 7.852809 -6.982295 1.643453 22.39686 8.418152 5.595691 -21.48971 8.981305 5.716546 -18.65531 9.573267 89.55008 36.49376 -24.62849 -0 0 16.83972 -8.994404 10.11477 2.051423 7.75621 -22.20619 -2.736559 -100.7808 42.30154 28.42158 0 0 -26.18896 -9.330459 18.4164 28.6825
0.1279062 103.6036 1.129146 1.249277 -2.07264 0.3759007 1.632301 -12.04049 7.582231 -0 41.06928 -0 -6.915277 -17.43422 -4.772639 -6.747245 12.15501 -24.46205 -0 5.695556 -0 -1.726074 -20.44125 22.63843 -0.4003864 -2.725577 5.315014 -1.027326 7.899645 -6.973918 1.638345 22.37229 8.432048 5.612718 -21.47315 8.980119 5.761097 -18.67448 9.563653 89.51795 36.63955 -24.58271 -0 0 16.84827 -8.980957 10.20612 2.019597 7.836755 -22.29177 -2.673598 -100.7645 42.15862 28.4287 0 0 -26.1845 -9.059554 18.50158 28.46802
0.2523372 103.4831 2.557991 0.4762161 -1.280469 0.4394213 2.991319 -17.78331 6.948434 -0 37.66049 -0 -6.887851 -14.85776 -4.217934 -6.115431 12.43123 -23.65996 -0 5.743977 -0 -1.291467 -21.8224 22.10576 -0.6252787 -2.046575 4.788506 -0.1401293 7.719216 -7.060989 1.348688 22.23519 8.563508 5.452447 -22.30372 8.943435 6.003529 -18.01669 9.992906 88.82071 36.90194 -23.78166 -0 0 15.47333 -8.832276 10.06479 3.082446 7.042334 -21.63483 -2.897006 -98.97446 40.35384 26.86554 0 0 -25.72024 -7.46407 17.30741 26.32069
0.3730691 103.209 4.251632 -0.1314463 -0.502521 0.4926118 4.056028 -22.20736 6.800622 -0 34.9042 -0 -6.756531 -12.92199 -4.042426 -5.612223 12.6798 -23.00166 -0 5.902555 -0 -1.551806 -23.11533 21.36331 -0.7174346 -1.701134 4.502509 0.3263817 7.674717 -7.142113 1.214318 22.12467 8.612533 5.374505 -22.70034 8.904623 6.168145 -17.65442 10.22282 88.52487 37.00201 -23.48939 -0 0 14.72142 -8.666553 10.01122 3.581338 6.66544 -21.35798 -3.034194 -98.02059 39.34841 25.99618 0 0 -25.57712 -6.627495 16.6948 25.23011
0.5080311 102.7259 6.357069 -0.6806133 0.3159506 0.5509669 5.13398 -26.85865 6.462009 -0 30.98117 -0 -6.485708 -10.35744 -3.631759 -5.16734 13.05091 -22.02713 -0 6.131844 -0 -1.374448 -24.214 20.51002 -0.7639151 -1.384252 4.171474 0.7806636 7.65535 -7.270264 1.120333 21.97238 8.63854 5.311128 -23.04276 8.867626 6.364274 -17.28463 10.43802 88.37502 36.98864 -23.45442 -0 0 14.00614 -8.309764 9.921996 3.934124 6.335994 -21.13396 -3.224449 -97.1369 38.47622 25.13596 0 0 -25.62283 -6.000342 16.14008 24.41023
0.6579033 102.045 8.945496 -1.119917 1.191978 0.6506482 6.051917 -30.90856 6.097472 -0 26.73873 -0 -6.188977 -7.772246 -3.243387 -4.834458 13.52721 -20.94288 -0 6.541886 -0 -1.417287 -25.12932 19.41888 -0.8032007 -1.116281 3.882543 1.174662 7.647428 -7.391665 1.039654 21.83829 8.65375 5.252754 -23.32591 8.82614 6.532439 -16.96234 10.62306 88.26435 36.96456 -23.44981 -0 0 13.37576 -8.011185 9.855128 4.241108 6.059833 -20.95624 -3.39073 -96.37352 37.70093 24.38051 0 0 -25.67369 -5.466201 15.65875 23.70689
0.8189565 101.2049 12.10498 -1.442796 2.161385 0.8356434 6.770826 -34.1684 5.600101 -0 22.25435 -0 -5.946586 -5.250067 -2.836899 -4.651024 14.13973 -19.70905 -0 7.326006 -0 -1.612741 -25.65961 18.08392 -0.8412406 -0.8716577 3.606325 1.544781 7.643212 -7.514515 0.964932 21.7158 8.659025 5.19233 -23.57801 8.777842 6.683022 -16.66053 10.79493 88.17844 36.92031 -23.46766 -0 0 12.78067 -7.748901 9.795724 4.53322 5.803544 -20.79685 -3.55044 -95.66674 36.97476 23.66898 0 0 -25.72318 -5.001083 15.20724 23.07624
0.9799754 100.2957 15.89377 -1.680302 3.200502 1.147314 7.267995 -36.22619 5.005761 -0 18.1198 -0 -5.861254 -3.103751 -2.492975 -4.600249 14.84494 -18.38524 -0 8.782285 -0 -2.235852 -25.61432 16.43952 -0.9000501 -0.6420541 3.35692 1.896355 7.635372 -7.624272 0.8812845 21.63164 8.651842 5.116331 -23.8082 8.710407 6.792569 -16.38414 10.96221 88.06642 36.87119 -23.40958 -0 0 12.20389 -7.632514 9.754994 4.880709 5.539157 -20.63252 -3.688473 -94.99694 36.25769 22.99755 0 0 -25.67698 -4.574707 14.75811 22.45121
1.126707 99.4576 20.34284 -1.900671 4.197578 1.606307 7.606399 -36.74956 4.384537 -0 14.98259 -0 -6.026145 -1.596743 -2.248919 -4.613386 15.52569 -17.01197 -0 11.38294 -0 -3.397684 -24.67048 14.50447 -0.9877618 -0.4294304 3.143703 2.224561 7.623804 -7.714554 0.7864753 21.59935 8.626672 5.018863 -24.01088 8.616795 6.849929 -16.14189 11.12673 87.91159 36.81554 -23.24049 -0 0 11.65271 -7.710673 9.737075 5.303469 5.258256 -20.45684 -3.798623 -94.36992 35.55391 22.37675 0 0 -25.49342 -4.199126 14.31382 21.83294
1.249273 98.86154 25.43622 -2.195109 4.911051 2.18296 7.920502 -35.53907 3.886307 -0 13.47662 -0 -6.46918 -0.9444404 -2.147558 -4.547156 15.92107 -15.66507 -0 15.70231 -0 -5.13715 -22.5163 12.39875 -1.11366 -0.2416325 2.9881 2.513549 7.610208 -7.772766 0.6800639 21.6363 8.577025 4.895175 -24.17301 8.489675 6.839632 -15.95293 11.28678 87.68948 36.75853 -22.90921 -0 0 11.15228 -8.050913 9.751669 5.820245 4.957966 -20.26713 -3.867187 -93.80579 34.87691 21.83516 0 0 -25.12105 -3.887549 13.8879 21.22753
1.353544 98.66789 31.08993 -2.606197 4.999784 2.762905 8.309674 -32.62707 3.639183 -0 13.81955 -0 -7.106872 -1.246739 -2.200619 -4.241902 15.59253 -14.44044 -0 22.26614 -0 -7.262333 -18.9962 10.40229 -1.280287 -0.09094241 2.917992 2.738168 7.599781 -7.783756 0.5672858 21.74992 8.499792 4.748124 -24.27691 8.32796 6.753498 -15.84167 11.43559 87.37853 36.71446 -22.37535 -0 0 10.74596 -8.695664 9.810767 6.428733 4.64906 -20.07023 -3.878252 -93.33413 34.24739 21.41259 0 0 -24.53724 -3.643519 13.50512 20.64859
1.467764 98.96901 37.12811 -3.039395 4.197759 3.143112 8.687933 -28.30844 3.640429 -0 15.4217 -0 -7.72116 -2.466151 -2.368842 -3.648809 13.96894 -13.41727 -0 31.1514 -0 -9.377465 -14.39675 8.877537 -1.48618 0.01352019 2.962354 2.873741 7.599421 -7.730585 0.4549781 21.93645 8.395998 4.585822 -24.30721 8.134297 6.590918 -15.83039 11.56606 86.95069 36.70555 -21.5967 -0 0 10.47938 -9.669691 9.927703 7.124416 4.346441 -19.87491 -3.816962 -92.97435 33.66686 21.14296 0 0 -23.74239 -3.445821 13.18053 20.09302
1.628872 99.74472 43.29469 -3.24617 2.585576 3.124547 8.754697 -23.06372 3.712219 -0 16.91122 -0 -8.048814 -4.387612 -2.528847 -2.962079 10.56812 -12.55362 -0 41.53742 -0 -10.97146 -9.582086 8.097852 -1.725523 0.07113627 3.141262 2.90606 7.618571 -7.600435 0.3500587 22.17712 8.268562 4.418859 -24.25307 7.911573 6.362351 -15.93128 11.67535 86.37461 36.74932 -20.5382 -0 0 10.38744 -10.972 10.11342 7.908328 4.062681 -19.68734 -3.677539 -92.72039 33.10108 21.03715 0 0 -22.76261 -3.250283 12.90563 19.5371
1.851106 100.8635 49.33865 -2.9521 0.684658 2.680981 8.206234 -17.40836 3.60236 -0 16.91188 -0 -7.94648 -6.529677 -2.49953 -2.539566 5.353447 -11.62068 -0 51.61493 -0 -11.57739 -5.71486 8.116674 -1.990501 0.090254 3.458421 2.83669 7.669295 -7.3895 0.2597864 22.44162 8.115496 4.254398 -24.10485 7.657771 6.087376 -16.14568 11.76804 85.62003 36.83952 -19.17827 -0 0 10.49367 -12.58132 10.37275 8.792033 3.800833 -19.50468 -3.468715 -92.53936 32.48476 21.0789 0 0 -21.63507 -3.016092 12.64882 18.95514
2.109895 102.1302 55.1242 -2.060912 -0.8859361 2.002149 7.049673 -11.73187 3.185225 -0 15.05621 -0 -7.483747 -8.230776 -2.17903 -2.548586 -1.092654 -10.32833 -0 59.20487 -0 -10.9885 -3.603348 8.83558 -2.271793 0.08073637 3.903336 2.675192 7.763439 -7.10169 0.1955646 22.69475 7.927366 4.095296 -23.84869 7.368958 5.789748 -16.47325 11.85159 84.6662 36.93946 -17.51745 -0 0 10.82961 -14.45825 10.70372 9.782915 3.55812 -19.31417 -3.210652 -92.39614 31.75953 21.24667 0 0 -20.39906 -2.739589 12.37813 18.35686
2.360202 103.3267 60.65031 -0.7820616 -1.894468 1.329344 5.670595 -6.238157 2.586308 -0 12.13308 -0 -6.851637 -9.139509 -1.670952 -2.709486 -7.847901 -8.590032 -0 62.60145 -0 -9.486824 -3.262125 10.15335 -2.557818 0.04537345 4.461119 2.425564 7.905165 -6.740969 0.1748012 22.90353 7.694832 3.945333 -23.46845 7.050633 5.491449 -16.92178 11.92701 83.50707 36.99909 -15.57983 -0 0 11.453 -16.54469 11.10138 10.86321 3.337022 -19.09739 -2.923658 -92.28619 30.91709 21.54544 0 0 -19.09772 -2.464108 12.08706 17.807
2.573836 104.214 65.97907 0.4375193 -2.539992 0.8074711 4.561439 -1.042747 2.068281 -0 9.285849 -0 -6.183939 -9.629297 -1.187225 -2.482887 -14.1199 -6.635744 -0 60.94354 -0 -7.792255 -4.071277 11.93936 -2.83422 -0.01979953 5.117804 2.083843 8.08451 -6.306616 0.2157197 23.04101 7.421661 3.814056 -22.9586 6.727116 5.210402 -17.50346 11.98495 82.15257 36.98226 -13.4093 -0 0 12.43357 -18.76132 11.56319 11.98517 3.151225 -18.83599 -2.61945 -92.24168 30.00278 22.01214 0 0 -17.78471 -2.249523 11.79707 17.3969
2.769973 104.5596 71.18552 1.155445 -3.063892 0.4617865 4.016945 3.699432 1.801935 -0 7.264186 -0 -5.471658 -10.48635 -0.8346123 -1.488431 -19.47365 -4.819446 -0 54.31891 -0 -6.620151 -5.2285 13.91624 -3.08432 -0.1158145 5.853146 1.652048 8.2802 -5.79981 0.3279962 23.0871 7.130685 3.714215 -22.3378 6.438325 4.962351 -18.21624 12.01319 80.63543 36.87645 -11.07516 -0 0 13.80406 -21.00818 12.09027 13.08684 3.018658 -18.51719 -2.30525 -92.30106 29.07579 22.68059 0 0 -16.52539 -2.130586 11.53497 17.19023
3.01086 104.2255 76.37439 1.176057 -3.455987 0.2131559 4.021689 7.791108 1.780803 -0 6.288955 -0 -4.642228 -12.19957 -0.5633023 0.2218405 -23.76165 -3.348937 -0 43.98992 -0 -6.205918 -6.088983 15.73304 -3.289065 -0.2318832 6.628578 1.153224 8.47283 -5.237762 0.5065503 23.03054 6.858034 3.654221 -21.64969 6.226129 4.762981 -19.02409 12.0085 79.03222 36.68025 -8.696579 -0 0 15.50834 -23.17091 12.68377 14.10881 2.95007 -18.14275 -1.997462 -92.4713 28.17045 23.53393 0 0 -15.39171 -2.101289 11.31076 17.19135
